<mxfile host="app.diagrams.net" modified="2024-05-02T08:40:41.818Z" agent="Mozilla/5.0 (Windows NT 10.0; Win64; x64) AppleWebKit/537.36 (KHTML, like Gecko) Chrome/124.0.0.0 Safari/537.36" version="24.0.0" etag="wsZWrlWlWbW9ZvI8PZux" type="github">
  <diagram name="Page-1" id="_GxP8zTZfmDeXqJvzcsI">
    <mxGraphModel>
      <root>
        <mxCell id="0" />
        <mxCell id="1" parent="0" />
      </root>
    </mxGraphModel>
  </diagram>
</mxfile>
